<svg id="visual" viewBox="0 0 600 900" width="600" height="900" xmlns="http://www.w3.org/2000/svg" xmlns:xlink="http://www.w3.org/1999/xlink" version="1.1"><rect x="0" y="0" width="600" height="900" fill="#001220"></rect><path d="M0 221L14.3 247.2C28.7 273.3 57.3 325.7 85.8 351.2C114.3 376.7 142.7 375.3 171.2 372.5C199.7 369.7 228.3 365.3 257 356.2C285.7 347 314.3 333 343 341.2C371.7 349.3 400.3 379.7 428.8 391.2C457.3 402.7 485.7 395.3 514.2 383.5C542.7 371.7 571.3 355.3 585.7 347.2L600 339L600 901L585.7 901C571.3 901 542.7 901 514.2 901C485.7 901 457.3 901 428.8 901C400.3 901 371.7 901 343 901C314.3 901 285.7 901 257 901C228.3 901 199.7 901 171.2 901C142.7 901 114.3 901 85.8 901C57.3 901 28.7 901 14.3 901L0 901Z" fill="#fa7268"></path><path d="M0 461L14.3 445.2C28.7 429.3 57.3 397.7 85.8 391.3C114.3 385 142.7 404 171.2 415.5C199.7 427 228.3 431 257 445.3C285.7 459.7 314.3 484.3 343 500C371.7 515.7 400.3 522.3 428.8 495.3C457.3 468.3 485.7 407.7 514.2 383.7C542.7 359.7 571.3 372.3 585.7 378.7L600 385L600 901L585.7 901C571.3 901 542.7 901 514.2 901C485.7 901 457.3 901 428.8 901C400.3 901 371.7 901 343 901C314.3 901 285.7 901 257 901C228.3 901 199.7 901 171.2 901C142.7 901 114.3 901 85.8 901C57.3 901 28.7 901 14.3 901L0 901Z" fill="#ef5f67"></path><path d="M0 575L14.3 573.3C28.7 571.7 57.3 568.3 85.8 551.5C114.3 534.7 142.7 504.3 171.2 482.7C199.7 461 228.3 448 257 468.2C285.7 488.3 314.3 541.7 343 555C371.7 568.3 400.3 541.7 428.8 542.2C457.3 542.7 485.7 570.3 514.2 568.7C542.7 567 571.3 536 585.7 520.5L600 505L600 901L585.7 901C571.3 901 542.7 901 514.2 901C485.7 901 457.3 901 428.8 901C400.3 901 371.7 901 343 901C314.3 901 285.7 901 257 901C228.3 901 199.7 901 171.2 901C142.7 901 114.3 901 85.8 901C57.3 901 28.7 901 14.3 901L0 901Z" fill="#e34c67"></path><path d="M0 653L14.3 654.2C28.7 655.3 57.3 657.7 85.8 647.7C114.3 637.7 142.7 615.3 171.2 602.7C199.7 590 228.3 587 257 609.7C285.7 632.3 314.3 680.7 343 682.8C371.7 685 400.3 641 428.8 622.7C457.3 604.3 485.7 611.7 514.2 631.7C542.7 651.7 571.3 684.3 585.7 700.7L600 717L600 901L585.7 901C571.3 901 542.7 901 514.2 901C485.7 901 457.3 901 428.8 901C400.3 901 371.7 901 343 901C314.3 901 285.7 901 257 901C228.3 901 199.7 901 171.2 901C142.7 901 114.3 901 85.8 901C57.3 901 28.7 901 14.3 901L0 901Z" fill="#d53867"></path><path d="M0 712L14.3 712C28.7 712 57.3 712 85.8 709.2C114.3 706.3 142.7 700.7 171.2 718C199.7 735.3 228.3 775.7 257 777.5C285.7 779.3 314.3 742.7 343 742.5C371.7 742.3 400.3 778.7 428.8 792.5C457.3 806.3 485.7 797.7 514.2 783.3C542.7 769 571.3 749 585.7 739L600 729L600 901L585.7 901C571.3 901 542.7 901 514.2 901C485.7 901 457.3 901 428.8 901C400.3 901 371.7 901 343 901C314.3 901 285.7 901 257 901C228.3 901 199.7 901 171.2 901C142.7 901 114.3 901 85.8 901C57.3 901 28.7 901 14.3 901L0 901Z" fill="#c62368"></path></svg>